<svg width="155" height="155" viewBox="0 0 155 155" fill="none" xmlns="http://www.w3.org/2000/svg">
<g clip-path="url(#clip0_2310_8775)">
<path d="M63.5742 155C28.5194 155 0 126.481 0 91.4258C0 56.3707 28.5194 27.8516 63.5742 27.8516C98.629 27.8516 127.148 56.371 127.148 91.4258C127.148 126.481 98.629 155 63.5742 155Z" fill="url(#paint0_linear_2310_8775)"/>
<path d="M63.5742 136.836C38.5351 136.836 18.1641 116.465 18.1641 91.4258C18.1641 66.3866 38.5351 46.0156 63.5742 46.0156C88.6134 46.0156 108.984 66.3866 108.984 91.4258C108.984 116.465 88.6134 136.836 63.5742 136.836Z" fill="url(#paint1_linear_2310_8775)"/>
<path d="M63.5742 118.672C48.5507 118.672 36.3281 106.449 36.3281 91.4258C36.3281 76.4023 48.5507 64.1797 63.5742 64.1797C78.5977 64.1797 90.8203 76.4023 90.8203 91.4258C90.8203 106.449 78.5977 118.672 63.5742 118.672Z" fill="url(#paint2_linear_2310_8775)"/>
<path d="M154.654 20.9672C153.951 19.2704 152.296 18.1639 150.459 18.1639H136.836V4.54083C136.836 2.70414 135.73 1.04818 134.032 0.345537C132.336 -0.356807 130.382 0.0312982 129.084 1.33003L110.92 19.4941C110.068 20.3457 109.59 21.5006 109.59 22.7049V38.9881L60.3633 88.2148C58.5898 89.9882 58.5898 92.8633 60.3633 94.6367C62.1367 96.4101 65.0121 96.4098 66.7852 94.6367L116.012 45.41H132.295C133.499 45.41 134.654 44.9314 135.506 44.0798L153.67 25.9157C154.968 24.6173 155.357 22.664 154.654 20.9672Z" fill="url(#paint3_linear_2310_8775)"/>
</g>
<defs>
<linearGradient id="paint0_linear_2310_8775" x1="63.5742" y1="155" x2="63.5742" y2="27.8516" gradientUnits="userSpaceOnUse">
<stop stop-color="#A49AEC"/>
<stop offset="1" stop-color="#6B5BE1"/>
</linearGradient>
<linearGradient id="paint1_linear_2310_8775" x1="63.5742" y1="136.836" x2="63.5742" y2="46.0156" gradientUnits="userSpaceOnUse">
<stop stop-color="#DAD5FF"/>
<stop offset="1" stop-color="#FFF2F4"/>
</linearGradient>
<linearGradient id="paint2_linear_2310_8775" x1="63.5742" y1="118.672" x2="63.5742" y2="64.1797" gradientUnits="userSpaceOnUse">
<stop stop-color="#A49AEC"/>
<stop offset="1" stop-color="#6B5BE1"/>
</linearGradient>
<linearGradient id="paint3_linear_2310_8775" x1="107.016" y1="95.9666" x2="107.016" y2="-0.000188762" gradientUnits="userSpaceOnUse">
<stop stop-color="#634FF9"/>
<stop offset="1" stop-color="#D2CCFF"/>
</linearGradient>
<clipPath id="clip0_2310_8775">
<rect width="155" height="155" fill="white"/>
</clipPath>
</defs>
</svg>
