<svg width="150" height="150" viewBox="0 0 150 150" fill="none" xmlns="http://www.w3.org/2000/svg">
<path d="M2.19727 148.901H147.803V143.774C147.803 140.943 145.507 138.647 142.676 138.647H7.32422C4.49268 138.647 2.19727 140.943 2.19727 143.774V148.901Z" fill="#6B5BE1"/>
<path d="M142.676 138.647H130.957C133.789 138.647 136.084 140.943 136.084 143.774V148.901H147.803V143.774C147.803 140.943 145.507 138.647 142.676 138.647Z" fill="#4B3CBA"/>
<path d="M97.7051 138.647H143.115V91.4795C143.115 88.2434 140.492 85.6201 137.256 85.6201H97.7051V138.647Z" fill="#B9B1F5"/>
<path d="M137.256 85.6201H125.537C128.773 85.6201 131.396 88.2434 131.396 91.4795V138.647H143.115V91.4795C143.115 88.2434 140.492 85.6201 137.256 85.6201Z" fill="#9D92EB"/>
<path d="M52.2949 138.647H97.7051V67.6934C97.7051 64.4572 95.0818 61.834 91.8457 61.834H58.1543C54.9182 61.834 52.2949 64.4572 52.2949 67.6934V138.647Z" fill="#8B7FE7"/>
<path d="M91.8457 61.834H80.127C83.3631 61.834 85.9863 64.4575 85.9863 67.6934V138.647H97.7051V67.6934C97.7051 64.4575 95.0818 61.834 91.8457 61.834Z" fill="#6B5BE1"/>
<path d="M6.88477 138.648H52.2949V75.9146H12.7441C9.50801 75.9146 6.88477 78.5378 6.88477 81.7739V138.648Z" fill="#B9B1F5"/>
<path d="M40.5762 75.9146H52.2949V138.648H40.5762V75.9146Z" fill="#9D92EB"/>
<path d="M75.5992 73.9014H71.4707C70.2569 73.9014 69.2734 74.8852 69.2734 76.0986C69.2734 77.3121 70.2569 78.2959 71.4707 78.2959H73.402V95.4138C73.402 96.6272 74.3854 97.611 75.5992 97.611C76.813 97.611 77.7965 96.6272 77.7965 95.4138V76.0986C77.7965 74.8852 76.8127 73.9014 75.5992 73.9014Z" fill="white"/>
<path d="M34.8691 105.735C32.9912 105.757 31.0154 105.772 29.2998 105.777C29.8116 105.193 30.348 104.561 30.8862 103.898C34.5108 99.428 36.273 95.937 36.273 93.2256C36.273 89.2887 33.07 86.0859 29.1334 86.0859C25.7297 86.0859 22.7833 88.5076 22.1276 91.8439C21.8935 93.0346 22.6693 94.1897 23.8599 94.4238C25.0509 94.657 26.2057 93.8821 26.4398 92.6915C26.6915 91.4104 27.8244 90.4808 29.1334 90.4808C30.6471 90.4808 31.8785 91.7124 31.8785 93.2259C31.8785 96.1644 26.5435 102.654 22.7551 106.323C22.2038 106.857 21.9709 107.641 22.1411 108.389C22.3116 109.138 22.86 109.743 23.5881 109.986C23.8819 110.084 24.164 110.178 28.1979 110.178C29.7829 110.178 31.9476 110.164 34.9195 110.129C36.1333 110.115 37.1053 109.12 37.091 107.907C37.0778 106.693 36.0867 105.714 34.8691 105.735Z" fill="white"/>
<path d="M127.55 103.034C127.55 99.0973 124.347 95.8945 120.41 95.8945C117.006 95.8945 114.059 98.3162 113.404 101.653C113.171 102.843 113.946 103.998 115.137 104.232C116.329 104.466 117.483 103.69 117.717 102.5C117.968 101.219 119.101 100.289 120.41 100.289C121.924 100.289 123.155 101.521 123.155 103.034C123.155 104.548 121.924 105.78 120.41 105.78C119.196 105.78 118.213 106.764 118.213 107.977C118.213 109.191 119.196 110.174 120.41 110.174C121.924 110.174 123.155 111.406 123.155 112.92C123.155 114.433 121.924 115.665 120.41 115.665C119.048 115.665 117.879 114.65 117.692 113.305C117.674 113.178 117.665 113.049 117.665 112.92C117.665 111.706 116.682 110.722 115.468 110.722C114.254 110.722 113.271 111.706 113.271 112.92C113.271 113.251 113.294 113.586 113.339 113.912C113.828 117.417 116.868 120.059 120.41 120.059C124.347 120.059 127.55 116.856 127.55 112.92C127.55 111.003 126.791 109.261 125.558 107.977C126.791 106.693 127.55 104.951 127.55 103.034Z" fill="white"/>
<path d="M40.1303 129.489H19.0488C17.8351 129.489 16.8516 128.505 16.8516 127.292C16.8516 126.079 17.8351 125.095 19.0488 125.095H40.13C41.3438 125.095 42.3272 126.079 42.3272 127.292C42.3272 128.505 41.3438 129.489 40.1303 129.489Z" fill="white"/>
<path d="M130.95 129.489H109.869C108.655 129.489 107.672 128.505 107.672 127.292C107.672 126.079 108.655 125.095 109.869 125.095H130.95C132.164 125.095 133.148 126.079 133.148 127.292C133.148 128.505 132.164 129.489 130.95 129.489Z" fill="white"/>
<path d="M40.1303 119.604H19.0488C17.8351 119.604 16.8516 118.621 16.8516 117.407C16.8516 116.194 17.8351 115.21 19.0488 115.21H40.13C41.3438 115.21 42.3272 116.194 42.3272 117.407C42.3272 118.621 41.3438 119.604 40.1303 119.604Z" fill="white"/>
<path d="M85.5401 129.489H64.459C63.2452 129.489 62.2617 128.505 62.2617 127.292C62.2617 126.079 63.2452 125.095 64.459 125.095H85.5401C86.7539 125.095 87.7374 126.079 87.7374 127.292C87.7374 128.505 86.7536 129.489 85.5401 129.489Z" fill="white"/>
<path d="M85.5401 119.604H64.459C63.2452 119.604 62.2617 118.621 62.2617 117.407C62.2617 116.194 63.2452 115.21 64.459 115.21H85.5401C86.7539 115.21 87.7374 116.194 87.7374 117.407C87.7374 118.621 86.7536 119.604 85.5401 119.604Z" fill="white"/>
<path d="M85.5401 109.72H64.459C63.2452 109.72 62.2617 108.736 62.2617 107.522C62.2617 106.309 63.2452 105.325 64.459 105.325H85.5401C86.7539 105.325 87.7374 106.309 87.7374 107.522C87.7374 108.736 86.7536 109.72 85.5401 109.72Z" fill="white"/>
<path d="M77.9689 5.51265L82.4648 14.6222C82.9474 15.5996 83.8796 16.2772 84.9583 16.4339L95.0112 17.8947C97.7276 18.2893 98.8122 21.6274 96.8467 23.5434L89.5723 30.6341C88.7918 31.395 88.4355 32.491 88.6198 33.5653L90.3372 43.5778C90.8013 46.2831 87.9618 48.3461 85.5322 47.0688L76.5404 42.3417C75.5757 41.8346 74.4231 41.8346 73.4584 42.3417L64.4666 47.0688C62.037 48.3461 59.1976 46.2831 59.6616 43.5778L61.379 33.5653C61.5633 32.491 61.207 31.395 60.4266 30.6341L53.1521 23.5434C51.1866 21.6274 52.2712 18.2896 54.9876 17.8947L65.0405 16.4339C66.1192 16.2772 67.0515 15.5999 67.534 14.6222L72.0299 5.51265C73.2445 3.05112 76.7543 3.05112 77.9689 5.51265Z" fill="#8B7FE7"/>
<path d="M95.0118 17.8945L84.9589 16.4338C83.8802 16.2771 82.9477 15.5994 82.4654 14.6221L77.9695 5.5125C77.3622 4.28174 76.181 3.6665 75 3.6665V41.9607C75.5294 41.9607 76.0588 42.0876 76.541 42.341L85.5328 47.0681C87.9621 48.3454 90.8019 46.2823 90.3378 43.577L88.6207 33.5646C88.4364 32.4902 88.7927 31.3942 89.5731 30.6334L96.8476 23.5427C98.8128 21.6272 97.7282 18.2892 95.0118 17.8945Z" fill="#6B5BE1"/>
</svg>
